#!OML:ASF Y:\EmotionMaleHayes\Project 1\Capture day 1\Session 1\Male1.ASF
:FULLY-SPECIFIED
:DEGREES
142
root -21.5596 15.6569 -0.111484 111.046 77.9636 95.8235
lowerback 16.4919 -1.70501 -14.3555
upperback 3.83521 -4.42955 -1.70271
thorax -4.07503 -1.94869 7.0774
lowerneck -27.7303 4.53155 3.25052
upperneck 16.4066 5.5088 -2.54379
head 9.87554 2.43948 -0.535435
rclavicle 5.97348e-014 2.44505e-014
rhumerus -92.4518 15.644 -97.965
rradius 76.7693
rwrist -31.0115
rhand -29.3821 -33.4132
rfingers 7.12502
rthumb -2.72071 -63.3756
lclavicle 5.97348e-014 2.44505e-014
lhumerus -28.2016 -29.5392 98.139
lradius 96.5453
lwrist 11.827
lhand -39.078 -38.5741
lfingers 7.12502
lthumb -12.0789 -8.94276
rfemur -57.2477 -7.50329 9.64049
rtibia 71.7248
rfoot -23.1076 -6.5593
rtoes -5.68916
lfemur 16.6853 -1.89528 -33.6386
ltibia 7.4222
lfoot -19.9276 0.764075
ltoes -24.7883
143
root -21.312 15.7031 -0.109695 109.848 78.0637 94.165
lowerback 16.0271 -1.69448 -14.5753
upperback 3.85084 -4.36818 -1.43032
thorax -3.77783 -1.94838 7.45464
lowerneck -27.6203 4.71472 3.46069
upperneck 16.1006 5.7446 -2.8539
head 9.77158 2.52782 -0.643737
rclavicle 3.1408e-014 -4.77083e-015
rhumerus -93.4754 16.1004 -98.167
rradius 77.627
rwrist -30.9568
rhand -29.1118 -33.2842
rfingers 7.12502
rthumb -2.45968 -63.2498
lclavicle 3.1408e-014 -4.77083e-015
lhumerus -28.1432 -30.4156 98.1164
lradius 97.9189
lwrist 12.309
lhand -39.3921 -39.7951
lfingers 7.12502
lthumb -12.3818 -10.1818
rfemur -57.1936 -7.13327 9.62237
rtibia 68.8021
rfoot -22.9388 -6.23502
rtoes -5.22434
lfemur 17.0759 -1.857 -33.5449
ltibia 7.0295
lfoot -17.7512 0.918978
ltoes -23.919
144
root -21.0643 15.7553 -0.105526 109.908 78.403 93.9887
lowerback 16.1443 -1.74183 -14.2912
upperback 3.72492 -4.41821 -1.14744
thorax -3.96981 -1.96222 7.6273
lowerneck -27.3076 4.85139 3.48862
upperneck 15.8373 5.92928 -2.87871
head 9.63329 2.61858 -0.633895
rclavicle 4.32357e-014 2.27608e-014
rhumerus -94.4503 16.4526 -98.443
rradius 78.2567
rwrist -30.6081
rhand -29.2413 -32.1305
rfingers 7.12502
rthumb -2.58476 -62.0946
lclavicle 4.32357e-014 2.27608e-014
lhumerus -28.7346 -31.169 98.264
lradius 99.2001
lwrist 12.5347
lhand -39.6646 -41.8289
lfingers 7.12502
lthumb -12.6445 -12.2317
rfemur -56.5938 -6.83305 9.96576
rtibia 65.7522
rfoot -22.8153 -6.25745
rtoes -6.06648
lfemur 17.5592 -2.01832 -33.0468
ltibia 6.89784
lfoot -15.5145 1.01378
ltoes -21.9049
145
root -20.8085 15.8052 -0.10268 108.869 78.6991 92.7117
lowerback 15.8754 -1.7558 -14.203
upperback 3.83098 -4.35997 -0.897504
thorax -3.70747 -1.96423 7.81944
lowerneck -27.0951 5.05401 3.61166
upperneck 15.4583 6.1778 -2.97884
head 9.47882 2.73635 -0.655029
rclavicle 4.23411e-014 3.63776e-014
rhumerus -94.7311 16.9542 -98.5869
rradius 78.735
rwrist -30.1667
rhand -29.0899 -30.8913
rfingers 7.12502
rthumb -2.43858 -60.8571
lclavicle 4.23411e-014 3.63776e-014
lhumerus -29.1616 -31.7697 98.2759
lradius 100.309
lwrist 12.4934
lhand -39.7837 -43.6186
lfingers 7.12502
lthumb -12.7593 -14.0284
rfemur -56.2573 -6.26811 10.1993
rtibia 63.5564
rfoot -23.0518 -6.27595
rtoes -6.84498
lfemur 18.0522 -1.98073 -32.654
ltibia 6.66735
lfoot -13.087 1.33288
ltoes -19.5951
146
root -20.5447 15.8512 -0.099747 107.026 79.0162 90.6458
lowerback 15.7629 -1.69376 -14.1087
upperback 3.86042 -4.23991 -0.709629
thorax -3.63498 -1.91724 7.94552
lowerneck -27.1253 5.29911 4.01498
upperneck 15.3916 6.41122 -3.22332
head 9.49073 2.84025 -0.766215
rclavicle -3.0265e-014 -3.76697e-014
rhumerus -94.7766 17.4073 -98.7283
rradius 79.1786
rwrist -29.8117
rhand -28.7227 -30.1638
rfingers 7.12502
rthumb -2.08389 -60.1334
lclavicle -3.0265e-014 -3.76697e-014
lhumerus -30.0652 -32.2564 98.4421
lradius 101.412
lwrist 12.1108
lhand -39.8469 -44.5654
lfingers 7.12502
lthumb -12.8202 -14.9791
rfemur -55.9277 -5.55179 10.447
rtibia 61.739
rfoot -23.2228 -6.1598
rtoes -5.72179
lfemur 18.456 -1.78301 -32.2285
ltibia 6.58199
lfoot -10.6255 1.74859
ltoes -17.906
147
root -20.2789 15.8951 -0.0972303 106.344 79.3484 89.797
lowerback 15.5039 -1.73366 -13.8789
upperback 4.063 -4.18498 -0.505728
thorax -3.28821 -1.92918 8.00572
lowerneck -27.2159 5.52783 4.4654
upperneck 15.2538 6.6223 -3.57083
head 9.49387 2.92422 -0.923676
rclavicle 2.00276e-014 -3.08613e-014
rhumerus -94.3099 17.9216 -98.7983
rradius 79.6927
rwrist -29.4838
rhand -28.6794 -30.2282
rfingers 7.12502
rthumb -2.04205 -60.1982
lclavicle 2.00276e-014 -3.08613e-014
lhumerus -30.8972 -32.6675 98.5623
lradius 102.409
lwrist 11.361
lhand -39.9926 -45.2398
lfingers 7.12502
lthumb -12.9607 -15.6624
rfemur -55.1988 -5.23255 10.8556
rtibia 59.7453
rfoot -22.9857 -6.08838
rtoes -3.93199
lfemur 18.642 -1.74043 -31.7052
ltibia 7.07402
lfoot -8.36378 2.08021
ltoes -17.7687
148
root -20.0078 15.9343 -0.101568 106.003 79.4015 89.288
lowerback 15.1674 -1.80224 -13.6316
upperback 4.2856 -4.15633 -0.444332
thorax -2.88541 -1.9551 7.89813
lowerneck -27.251 5.63288 4.72196
upperneck 15.0737 6.71454 -3.81101
head 9.45826 2.95545 -1.03366
rclavicle -1.67228e-014 -1.33434e-014
rhumerus -93.5514 18.2921 -98.7463
rradius 80.1926
rwrist -29.3053
rhand -28.7336 -30.5315
rfingers 7.12502
rthumb -2.09441 -60.501
lclavicle -1.67228e-014 -1.33434e-014
lhumerus -31.941 -33.0985 98.8072
lradius 103.288
lwrist 10.4738
lhand -40.1347 -46.0237
lfingers 7.12502
lthumb -13.0976 -16.455
rfemur -54.3304 -5.52304 11.1451
rtibia 58.1602
rfoot -22.8132 -5.91707
rtoes -1.88679
lfemur 18.5929 -1.83621 -31.6183
ltibia 8.05731
lfoot -6.31514 2.41436
ltoes -17.2535
149
root -19.7346 15.9677 -0.104685 105.472 79.2933 88.6152
lowerback 15.7572 -1.6718 -13.4901
upperback 3.70296 -4.13078 -0.37265
thorax -3.8557 -1.85389 7.9586
lowerneck -26.0582 5.52545 4.81666
upperneck 15.0377 6.6378 -4.03354
head 9.25994 2.91584 -1.15999
rclavicle -1.05356e-014 2.37051e-014
rhumerus -93.8496 18.2276 -98.6659
rradius 80.5695
rwrist -29.1338
rhand -28.679 -30.066
rfingers 7.12502
rthumb -2.0417 -60.036
lclavicle -1.05356e-014 2.37051e-014
lhumerus -34.97 -33.266 100.388
lradius 104.215
lwrist 9.56876
lhand -40.1505 -46.911
lfingers 7.12502
lthumb -13.1128 -17.3433
rfemur -53.4369 -6.12938 11.4561
rtibia 57.2208
rfoot -23.0964 -6.33653
rtoes -2.41371
lfemur 18.3217 -1.9549 -31.7747
ltibia 9.43089
lfoot -4.25756 2.79363
ltoes -15.1988
150
root -19.4595 15.9973 -0.0956337 106.533 79.3591 89.6863
lowerback 15.7589 -1.70799 -13.2091
upperback 3.95607 -4.09641 -0.284863
thorax -3.60305 -1.86531 7.88078
lowerneck -26.2778 5.63155 5.24232
upperneck 14.9343 6.72377 -4.54053
head 9.29965 2.91976 -1.38648
rclavicle -1.66979e-014 -7.60351e-015
rhumerus -92.3728 18.3649 -98.3341
rradius 80.7612
rwrist -28.9245
rhand -28.6513 -29.6671
rfingers 7.12502
rthumb -2.01495 -59.6373
lclavicle -1.66979e-014 -7.60351e-015
lhumerus -36.2603 -33.6065 100.81
lradius 104.862
lwrist 9.07582
lhand -39.9577 -47.3445
lfingers 7.12502
lthumb -12.927 -17.765
rfemur -52.212 -6.85095 12.1084
rtibia 56.625
rfoot -23.4403 -7.264
rtoes -0.0296093
lfemur 17.8898 -2.2265 -31.5262
ltibia 11.3488
lfoot -2.40035 3.04704
ltoes -13.2703
151
root -19.1922 16.0132 -0.105659 105.695 79.5507 88.6402
lowerback 15.5748 -1.66899 -12.8
upperback 4.03484 -3.94478 -0.152134
thorax -3.4751 -1.80786 7.75779
lowerneck -26.206 5.71508 5.39632
upperneck 14.8047 6.87263 -4.96141
head 9.27357 2.9518 -1.53524
rclavicle 3.72721e-015 -4.29375e-014
rhumerus -90.8458 18.6474 -97.8295
rradius 80.955
rwrist -28.8534
rhand -28.6048 -29.5736
rfingers 7.12502
rthumb -1.97003 -59.5442
lclavicle 3.72721e-015 -4.29375e-014
lhumerus -37.5936 -33.806 101.508
lradius 104.83
lwrist 8.32962
lhand -39.9649 -47.7959
lfingers 7.12502
lthumb -12.934 -18.2167
rfemur -51.4785 -7.31863 12.8168
rtibia 56.8611
rfoot -24.3565 -8.93594
rtoes -0.629569
lfemur 17.0114 -2.4726 -31.5247
ltibia 13.6951
lfoot -1.05454 3.48097
ltoes -12.2311
152
root -18.9198 16.0195 -0.111843 103.988 79.3922 86.7137
lowerback 15.4298 -1.54028 -12.9418
upperback 4.02528 -3.77613 -0.00531453
thorax -3.42286 -1.73119 7.96375
lowerneck -26.1121 5.70949 5.18242
upperneck 14.6685 6.97474 -5.10964
head 9.21489 2.97335 -1.53887
rclavicle -1.55052e-014 -2.70347e-014
rhumerus -89.2784 19.0022 -97.1478
rradius 81.1615
rwrist -28.752
rhand -28.6317 -29.1231
rfingers 7.12502
rthumb -1.99605 -59.0935
lclavicle -1.55052e-014 -2.70347e-014
lhumerus -39.0484 -33.7186 102.445
lradius 104.705
lwrist 8.22094
lhand -39.7918 -47.9322
lfingers 7.12502
lthumb -12.7671 -18.3426
rfemur -50.7737 -7.56623 12.9505
rtibia 57.6544
rfoot -25.5481 -8.8342
rtoes 0.834466
lfemur 15.9221 -2.60968 -31.9352
ltibia 16.4522
lfoot 0.0505988 3.6608
ltoes -11.1426
153
root -18.6491 16.0181 -0.107228 102.746 79.2088 85.3754
lowerback 15.3598 -1.40931 -13.1535
upperback 4.14566 -3.60763 0.105703
thorax -3.26754 -1.66396 8.17022
lowerneck -25.8684 5.70706 5.0589
upperneck 14.1275 7.05862 -5.36307
head 8.99722 2.98931 -1.60027
rclavicle 1.09332e-015 -1.05356e-014
rhumerus -87.4131 19.2315 -96.4912
rradius 81.4741
rwrist -28.3063
rhand -28.4326 -28.4973
rfingers 7.12502
rthumb -1.80374 -58.4694
lclavicle 1.09332e-015 -1.05356e-014
lhumerus -40.3518 -33.5082 103.205
lradius 104.445
lwrist 8.31631
lhand -39.6985 -47.8918
lfingers 7.12502
lthumb -12.6771 -18.2966
rfemur -49.7302 -7.50798 12.8771
rtibia 58.3156
rfoot -26.3669 -8.15224
rtoes 2.03014
lfemur 14.6394 -2.79642 -32.2744
ltibia 19.8095
lfoot 0.772667 3.6366
ltoes -10.7628
